<svg width="1440" height="439" viewBox="0 0 1440 439" fill="none" xmlns="http://www.w3.org/2000/svg">
<line y1="-1.3024" x2="755.431" y2="-1.3024" transform="matrix(9.02027e-08 -1 -1 -2.11821e-08 758.447 428.938)" stroke="white" stroke-opacity="0.46" stroke-width="2.6048"/>
<line y1="-1.3024" x2="755.431" y2="-1.3024" transform="matrix(9.02027e-08 -1 -1 -2.11821e-08 1140.76 428.938)" stroke="white" stroke-opacity="0.46" stroke-width="2.6048"/>
<line y1="-1.3024" x2="755.431" y2="-1.3024" transform="matrix(9.02027e-08 -1 -1 -2.11821e-08 834.916 428.938)" stroke="white" stroke-opacity="0.46" stroke-width="2.6048"/>
<line y1="-1.3024" x2="755.431" y2="-1.3024" transform="matrix(9.02027e-08 -1 -1 -2.11821e-08 1217.22 428.938)" stroke="white" stroke-opacity="0.46" stroke-width="2.6048"/>
<line y1="-1.3024" x2="755.431" y2="-1.3024" transform="matrix(9.02027e-08 -1 -1 -2.11821e-08 911.373 428.938)" stroke="white" stroke-opacity="0.46" stroke-width="2.6048"/>
<line y1="-1.3024" x2="755.431" y2="-1.3024" transform="matrix(9.02027e-08 -1 -1 -2.11821e-08 1293.68 428.938)" stroke="white" stroke-opacity="0.46" stroke-width="2.6048"/>
<line y1="-1.3024" x2="755.431" y2="-1.3024" transform="matrix(9.02027e-08 -1 -1 -2.11821e-08 987.83 428.938)" stroke="white" stroke-opacity="0.46" stroke-width="2.6048"/>
<line y1="-1.3024" x2="755.431" y2="-1.3024" transform="matrix(9.02027e-08 -1 -1 -2.11821e-08 1370.15 428.938)" stroke="white" stroke-opacity="0.46" stroke-width="2.6048"/>
<line y1="-1.3024" x2="755.431" y2="-1.3024" transform="matrix(9.02027e-08 -1 -1 -2.11821e-08 1064.3 428.938)" stroke="white" stroke-opacity="0.46" stroke-width="2.6048"/>
<line y1="-1.3024" x2="755.431" y2="-1.3024" transform="matrix(9.02027e-08 -1 -1 -2.11821e-08 374.569 438.401)" stroke="white" stroke-opacity="0.46" stroke-width="2.6048"/>
<line y1="-1.3024" x2="755.431" y2="-1.3024" transform="matrix(9.02027e-08 -1 -1 -2.11821e-08 68.7227 438.401)" stroke="white" stroke-opacity="0.46" stroke-width="2.6048"/>
<line y1="-1.3024" x2="755.431" y2="-1.3024" transform="matrix(9.02027e-08 -1 -1 -2.11821e-08 451.032 438.401)" stroke="white" stroke-opacity="0.46" stroke-width="2.6048"/>
<line y1="-1.3024" x2="755.431" y2="-1.3024" transform="matrix(9.02027e-08 -1 -1 -2.11821e-08 145.181 438.401)" stroke="white" stroke-opacity="0.46" stroke-width="2.6048"/>
<line y1="-1.3024" x2="755.431" y2="-1.3024" transform="matrix(9.02027e-08 -1 -1 -2.11821e-08 527.489 438.401)" stroke="white" stroke-opacity="0.46" stroke-width="2.6048"/>
<line y1="-1.3024" x2="755.431" y2="-1.3024" transform="matrix(9.02027e-08 -1 -1 -2.11821e-08 221.638 438.401)" stroke="white" stroke-opacity="0.46" stroke-width="2.6048"/>
<line y1="-1.3024" x2="755.431" y2="-1.3024" transform="matrix(9.02027e-08 -1 -1 -2.11821e-08 603.957 438.401)" stroke="white" stroke-opacity="0.46" stroke-width="2.6048"/>
<line y1="-1.3024" x2="755.431" y2="-1.3024" transform="matrix(9.02027e-08 -1 -1 -2.11821e-08 298.105 438.401)" stroke="white" stroke-opacity="0.46" stroke-width="2.6048"/>
<line y1="-1.3024" x2="755.431" y2="-1.3024" transform="matrix(9.06855e-08 -1 -1 -2.10693e-08 680.42 438.401)" stroke="white" stroke-opacity="0.46" stroke-width="2.6048"/>
<line y1="-1.3024" x2="1471.93" y2="-1.3024" transform="matrix(-1 -4.89053e-08 -3.90691e-08 1 1455.96 428.521)" stroke="white" stroke-opacity="0.46" stroke-width="2.6048"/>
<line y1="-1.3024" x2="1471.93" y2="-1.3024" transform="matrix(-1 -4.89053e-08 -3.90691e-08 1 1455.96 24.6406)" stroke="white" stroke-opacity="0.46" stroke-width="2.6048"/>
<line y1="-1.3024" x2="1471.93" y2="-1.3024" transform="matrix(-1 -4.89053e-08 -3.90691e-08 1 1455.96 347.742)" stroke="white" stroke-opacity="0.46" stroke-width="2.6048"/>
<line y1="-1.3024" x2="1471.93" y2="-1.3024" transform="matrix(-1 -4.89053e-08 -3.90691e-08 1 1455.96 266.963)" stroke="white" stroke-opacity="0.46" stroke-width="2.6048"/>
<line y1="-1.3024" x2="1471.93" y2="-1.3024" transform="matrix(-1 -4.89053e-08 -3.90691e-08 1 1455.96 186.193)" stroke="white" stroke-opacity="0.46" stroke-width="2.6048"/>
<line y1="-1.3024" x2="1471.93" y2="-1.3024" transform="matrix(-1 -4.89053e-08 -3.90691e-08 1 1455.96 105.419)" stroke="white" stroke-opacity="0.46" stroke-width="2.6048"/>
</svg>
